<svg width="35" height="32" viewBox="0 0 35 32" fill="none" xmlns="http://www.w3.org/2000/svg">
<g id="pen-to-square-solid 1" clip-path="url(#clip0_154_77)">
<path id="Vector" d="M32.2382 1.63516C30.7411 0.287793 28.3212 0.287793 26.8242 1.63516L24.7665 3.48086L31.4589 9.504L33.5165 7.65215C35.0136 6.30478 35.0136 4.12686 33.5165 2.77949L32.2382 1.63516ZM11.7851 15.1703C11.3681 15.5456 11.0468 16.007 10.8622 16.5177L8.83881 21.981C8.64056 22.5101 8.79779 23.0945 9.23529 23.4944C9.67279 23.8943 10.3222 24.0297 10.9169 23.8513L16.9872 22.0302C17.5478 21.8579 18.0605 21.5749 18.4843 21.1996L29.9208 10.9006L23.2216 4.87129L11.7851 15.1703ZM6.56244 4.2376C2.93939 4.2376 -6.10352e-05 6.88311 -6.10352e-05 10.1438V25.8938C-6.10352e-05 29.1546 2.93939 31.8001 6.56244 31.8001H24.0624C27.6855 31.8001 30.6249 29.1546 30.6249 25.8938V19.9876C30.6249 18.8986 29.6474 18.0188 28.4374 18.0188C27.2275 18.0188 26.2499 18.8986 26.2499 19.9876V25.8938C26.2499 26.9828 25.2724 27.8626 24.0624 27.8626H6.56244C5.35248 27.8626 4.37494 26.9828 4.37494 25.8938V10.1438C4.37494 9.05488 5.35248 8.1751 6.56244 8.1751H13.1249C14.3349 8.1751 15.3124 7.29531 15.3124 6.20635C15.3124 5.11738 14.3349 4.2376 13.1249 4.2376H6.56244Z" fill="#6E6CDF"/>
</g>
<defs>
<clipPath id="clip0_154_77">
<rect width="35" height="31.5" fill="white" transform="translate(-6.10352e-05 0.300049)"/>
</clipPath>
</defs>
</svg>
